<?xml version="1.0" encoding="utf-8"?>
<svg xmlns="http://www.w3.org/2000/svg" xmlns:xlink="http://www.w3.org/1999/xlink" style="margin: auto; background: none; display: block; shape-rendering: auto;" width="200px" height="200px" viewBox="0 0 100 100" preserveAspectRatio="xMidYMid">
<g transform="translate(50 50)">
  <g transform="scale(1)">
    <g transform="translate(-50 -50)">
      <g>
        <animateTransform attributeName="transform" type="rotate" repeatCount="indefinite" values="0 50 50;360 50 50" keyTimes="0;1" dur="0.8333333333333334s"></animateTransform>
        <path fill-opacity="1" fill="#85a2b6" d="M50 50L50 0A50 50 0 0 1 100 50Z"></path>
      </g>
      <g>
        <animateTransform attributeName="transform" type="rotate" repeatCount="indefinite" values="0 50 50;360 50 50" keyTimes="0;1" dur="1.1111111111111112s"></animateTransform>
        <path fill-opacity="1" fill="#bbcedd" d="M50 50L50 0A50 50 0 0 1 100 50Z" transform="rotate(90 50 50)"></path>
      </g>
      <g>
        <animateTransform attributeName="transform" type="rotate" repeatCount="indefinite" values="0 50 50;360 50 50" keyTimes="0;1" dur="1.6666666666666667s"></animateTransform>
        <path fill-opacity="1" fill="#dce4eb" d="M50 50L50 0A50 50 0 0 1 100 50Z" transform="rotate(180 50 50)"></path>
      </g>
      <g>
        <animateTransform attributeName="transform" type="rotate" repeatCount="indefinite" values="0 50 50;360 50 50" keyTimes="0;1" dur="3.3333333333333335s"></animateTransform>
        <path fill-opacity="1" fill="#fdfdfd" d="M50 50L50 0A50 50 0 0 1 100 50Z" transform="rotate(270 50 50)"></path>
      </g>
    </g>
  </g>
</g>
<!-- [ldio] generated by https://loading.io/ --></svg>